# xmcd
# 
# Track frame offsets:
#     182
#     20615
#     33135
#     45510
#     60457
#     75750
#     85695
#     99487
#     107412
#     118775
#     131285
#     168697
#     181780
#     195580
#     202442
#     227695
# 
# Disc length: 3285
# 
# Revision: 31
# Processed by: cddbd v1.5.2PL0 Copyright (c) Steve Scherf et al.
# Submitted via: fre:ac v1.0.17
# 
DISCID=c00cd310
DTITLE=Various / The Rocky Horror Picture Show
DYEAR=1975
DGENRE=Soundtrack
TTITLE0=Richard O'Brien / Science Fiction/Double Feature
TTITLE1=Barry Bostwick / Dammit Janet
TTITLE2=Barry Bostwick, Susan Sarandon & Richard O'Brien / Over at the Frankenstein Place
TTITLE3=Richard O'Brien, Patricia Quinn & Little Nell / The Time Warp
TTITLE4=Tim Curry / Sweet Transvestite
TTITLE5=Tim Curry / I Can Make You a Man
TTITLE6=Meat Loaf / Hot Patootie - Bless My Soul
TTITLE7=Tim Curry / I Can Make You a Man (Reprise)
TTITLE8=Susan Sarandon, Little Nell, Patricia Quinn, Tim Curry, Barry Bostwick, Richard O'Brien & Trevor White / Touch-a, Touch-a, Touch Me
TTITLE9=Jonathan Adams, Susan Sarandon & Tim Curry / Eddie
TTITLE10=Trevor White, Little Nell, Tim Curry, Susan Sarandon, Barry Bostwick & Jonathan Adams / Floor Show (a. Rose Tint My World - b. Fanfare/Don't Dream It, Be It - c. Wild and Untamed Thing)
TTITLE11=Tim Curry / I'm Going Home
TTITLE12=Barry Bostwick, Susan Sarandon & Jonathan Adams / Super Heroes
TTITLE13=Richard O'Brien / Science Fiction/Double Feature (Reprise)
TTITLE14=The Cast / The Time Warp (1989 remix extended version)
TTITLE15=The Cast / The Time Warp (Music-1 = Background Track + U Mix)
EXTD=
EXTT0=
EXTT1=
EXTT2=
EXTT3=
EXTT4=
EXTT5=
EXTT6=
EXTT7=
EXTT8=
EXTT9=
EXTT10=
EXTT11=
EXTT12=
EXTT13=
EXTT14=
EXTT15=
PLAYORDER=
.
